<?xml version="1.0" encoding="iso-8859-1"?>
<!-- Uploaded to: SVG Repo, www.svgrepo.com, Generator: SVG Repo Mixer Tools -->
<svg version="1.1" id="Layer_1" xmlns="http://www.w3.org/2000/svg" xmlns:xlink="http://www.w3.org/1999/xlink" 
	 viewBox="0 0 511.999 511.999" xml:space="preserve">
<g>
	<rect x="147.02" y="170.66" style="fill:#5D9CEC;" width="215.64" height="21.344"/>
	<rect x="155.46" y="320" style="fill:#5D9CEC;" width="193.06" height="21.344"/>
	<rect x="99.91" y="106.66" style="fill:#5D9CEC;" width="308.61" height="21.344"/>
	<rect x="74.4" y="448" style="fill:#5D9CEC;" width="365.69" height="21.344"/>
	<rect x="74.4" y="42.656" style="fill:#5D9CEC;" width="365.69" height="21.344"/>
	<rect x="108.71" y="384" style="fill:#5D9CEC;" width="294.62" height="21.344"/>
</g>
<path style="fill:#4FC1E9;" d="M434.336,502.812C434.305,502.656,434.336,502.984,434.336,502.812L434.336,502.812z"/>
<path style="fill:#967ADC;" d="M56.555,499.938C72.586,367.812,178.93,292.969,245.273,256
	C316.367,216.391,419.852,142.938,434.32,9.625C434.836,4.219,439.398,0,444.93,0c5.906,0,10.672,4.781,10.672,10.656
	c0,0.406-0.016,0.781-0.078,1.172c-11.594,107.016-78.688,195.297-199.875,262.797c-21.344,11.906-40.219,24.062-57.719,37.203
	c-22.594,16.969-42.375,35.328-58.781,54.562c-19.516,22.875-34.719,47.516-45.188,73.266c-8.031,19.75-13.594,41.625-16.281,63.156
	c-0.031,0.141-0.031,0.281-0.062,0.422v-0.016c-0.906,5-5.25,8.781-10.5,8.781c-5.875,0-10.656-4.781-10.656-10.656
	C56.461,500.859,56.492,500.406,56.555,499.938z"/>
<path style="fill:#AC92EC;" d="M455.445,499.938C439.43,367.812,333.086,292.969,266.742,256
	C195.648,216.391,92.148,142.938,77.68,9.625C77.148,4.219,72.617,0,67.055,0C61.18,0,56.398,4.781,56.398,10.656
	c0,0.406,0.031,0.781,0.062,1.172c11.625,107.016,78.719,195.297,199.891,262.797c21.328,11.906,40.203,24.062,57.703,37.203
	c22.609,16.969,42.391,35.328,58.797,54.562c19.516,22.875,34.719,47.516,45.188,73.266c8.031,19.75,13.594,41.625,16.297,63.156
	c0,0.141,0.031,0.281,0.047,0.422l0.016-0.016c0.875,5,5.234,8.781,10.469,8.781c5.906,0,10.688-4.781,10.688-10.656
	C455.555,500.859,455.492,500.406,455.445,499.938z"/>
</svg>